<mxfile host="app.diagrams.net" agent="Mozilla/5.0 (Windows NT 10.0; Win64; x64) AppleWebKit/537.36 (KHTML, like Gecko) Chrome/129.0.0.0 Safari/537.36 Edg/129.0.0.0" version="24.7.17">
  <diagram name="Sayfa -1" id="8JH2U3veNvAfryq33Xtq">
    <mxGraphModel dx="1042" dy="575" grid="1" gridSize="10" guides="1" tooltips="1" connect="1" arrows="1" fold="1" page="1" pageScale="1" pageWidth="827" pageHeight="1169" math="0" shadow="0">
      <root>
        <mxCell id="0" />
        <mxCell id="1" parent="0" />
        <mxCell id="BvcjM3NDlGH1Y1zfkn3W-4" style="edgeStyle=orthogonalEdgeStyle;rounded=0;orthogonalLoop=1;jettySize=auto;html=1;exitX=0.5;exitY=1;exitDx=0;exitDy=0;entryX=0.5;entryY=0;entryDx=0;entryDy=0;" edge="1" parent="1" source="BvcjM3NDlGH1Y1zfkn3W-1" target="BvcjM3NDlGH1Y1zfkn3W-2">
          <mxGeometry relative="1" as="geometry" />
        </mxCell>
        <mxCell id="BvcjM3NDlGH1Y1zfkn3W-1" value="BAŞLA" style="ellipse;whiteSpace=wrap;html=1;" vertex="1" parent="1">
          <mxGeometry x="340" y="30" width="120" height="80" as="geometry" />
        </mxCell>
        <mxCell id="BvcjM3NDlGH1Y1zfkn3W-7" style="edgeStyle=orthogonalEdgeStyle;rounded=0;orthogonalLoop=1;jettySize=auto;html=1;" edge="1" parent="1" source="BvcjM3NDlGH1Y1zfkn3W-2" target="BvcjM3NDlGH1Y1zfkn3W-8">
          <mxGeometry relative="1" as="geometry">
            <mxPoint x="400" y="390" as="targetPoint" />
          </mxGeometry>
        </mxCell>
        <mxCell id="BvcjM3NDlGH1Y1zfkn3W-2" value="a" style="shape=parallelogram;perimeter=parallelogramPerimeter;whiteSpace=wrap;html=1;fixedSize=1;" vertex="1" parent="1">
          <mxGeometry x="340" y="270" width="120" height="60" as="geometry" />
        </mxCell>
        <mxCell id="BvcjM3NDlGH1Y1zfkn3W-5" value="toplam =0;&lt;div&gt;sayaç=0;&lt;/div&gt;" style="rounded=0;whiteSpace=wrap;html=1;" vertex="1" parent="1">
          <mxGeometry x="340" y="150" width="120" height="60" as="geometry" />
        </mxCell>
        <mxCell id="BvcjM3NDlGH1Y1zfkn3W-10" style="edgeStyle=orthogonalEdgeStyle;rounded=0;orthogonalLoop=1;jettySize=auto;html=1;exitX=0.5;exitY=1;exitDx=0;exitDy=0;entryX=0.5;entryY=0;entryDx=0;entryDy=0;" edge="1" parent="1" source="BvcjM3NDlGH1Y1zfkn3W-8" target="BvcjM3NDlGH1Y1zfkn3W-9">
          <mxGeometry relative="1" as="geometry" />
        </mxCell>
        <mxCell id="BvcjM3NDlGH1Y1zfkn3W-8" value="toplam=toplam+a&lt;div&gt;sayaç=sayaç+1;&lt;/div&gt;" style="rounded=0;whiteSpace=wrap;html=1;" vertex="1" parent="1">
          <mxGeometry x="340" y="360" width="120" height="60" as="geometry" />
        </mxCell>
        <mxCell id="BvcjM3NDlGH1Y1zfkn3W-11" style="edgeStyle=orthogonalEdgeStyle;rounded=0;orthogonalLoop=1;jettySize=auto;html=1;" edge="1" parent="1" source="BvcjM3NDlGH1Y1zfkn3W-9" target="BvcjM3NDlGH1Y1zfkn3W-2">
          <mxGeometry relative="1" as="geometry">
            <mxPoint x="630" y="310" as="targetPoint" />
            <Array as="points">
              <mxPoint x="631" y="510" />
              <mxPoint x="631" y="300" />
            </Array>
          </mxGeometry>
        </mxCell>
        <mxCell id="BvcjM3NDlGH1Y1zfkn3W-15" style="edgeStyle=orthogonalEdgeStyle;rounded=0;orthogonalLoop=1;jettySize=auto;html=1;" edge="1" parent="1" source="BvcjM3NDlGH1Y1zfkn3W-9" target="BvcjM3NDlGH1Y1zfkn3W-16">
          <mxGeometry relative="1" as="geometry">
            <mxPoint x="480" y="640" as="targetPoint" />
            <Array as="points">
              <mxPoint x="400" y="640" />
            </Array>
          </mxGeometry>
        </mxCell>
        <mxCell id="BvcjM3NDlGH1Y1zfkn3W-9" value="sayaç=" style="rhombus;whiteSpace=wrap;html=1;" vertex="1" parent="1">
          <mxGeometry x="361" y="470" width="80" height="80" as="geometry" />
        </mxCell>
        <mxCell id="BvcjM3NDlGH1Y1zfkn3W-13" value="Y" style="text;html=1;align=center;verticalAlign=middle;whiteSpace=wrap;rounded=0;fillColor=none;strokeColor=none;fontSize=17;" vertex="1" parent="1">
          <mxGeometry x="490" y="480" width="60" height="30" as="geometry" />
        </mxCell>
        <mxCell id="BvcjM3NDlGH1Y1zfkn3W-18" value="" style="edgeStyle=orthogonalEdgeStyle;rounded=0;orthogonalLoop=1;jettySize=auto;html=1;" edge="1" parent="1" source="BvcjM3NDlGH1Y1zfkn3W-16">
          <mxGeometry relative="1" as="geometry">
            <mxPoint x="695" y="635" as="targetPoint" />
          </mxGeometry>
        </mxCell>
        <mxCell id="BvcjM3NDlGH1Y1zfkn3W-16" value="Toplam" style="shape=document;whiteSpace=wrap;html=1;boundedLbl=1;" vertex="1" parent="1">
          <mxGeometry x="490" y="600" width="110" height="70" as="geometry" />
        </mxCell>
        <mxCell id="BvcjM3NDlGH1Y1zfkn3W-19" value="BİTİR" style="ellipse;whiteSpace=wrap;html=1;" vertex="1" parent="1">
          <mxGeometry x="690" y="595" width="120" height="80" as="geometry" />
        </mxCell>
        <mxCell id="BvcjM3NDlGH1Y1zfkn3W-20" value="D" style="text;html=1;align=center;verticalAlign=middle;whiteSpace=wrap;rounded=0;fontSize=19;" vertex="1" parent="1">
          <mxGeometry x="354" y="580" width="60" height="30" as="geometry" />
        </mxCell>
      </root>
    </mxGraphModel>
  </diagram>
</mxfile>
